<?xml version="1.0" encoding="UTF-8" standalone="no"?>
<!DOCTYPE svg PUBLIC "-//W3C//DTD SVG 1.1//EN" "http://www.w3.org/Graphics/SVG/1.1/DTD/svg11.dtd">
<svg width="400" height="650" xmlns="http://www.w3.org/2000/svg" version="1.1">
  <!-- large tringle -->
  <path d="M 320 20 L 20 260 L 260 320 Z" fill="#aaddee" stroke="black" stroke-width="2"/>
  <circle cx="320" cy="20" r="10" fill="black" stroke="none"/>
  <circle cx="20" cy="260" r="10" fill="black" stroke="none"/>
  <circle cx="260" cy="320" r="10" fill="black" stroke="none"/>
  <!-- Small triangle -->
  <path d="M 290 170 L 270 190 L 260 110" fill="none" stroke="gray" stroke-width="2" stroke-dasharray="10,10"/>
  <path d="M 350 110 L 250 30 L 260 110 L 300 120 L 290 170 Z" fill="#99ccdd" stroke="black" stroke-width="2"/>
  <circle cx="350" cy="110" r="10" fill="black" stroke="none"/>
  <circle cx="250" cy="30" r="10" fill="black" stroke="none"/>
  <circle cx="270" cy="190" r="10" fill="gray" stroke="none"/>
  <!-- tetrahedron -->
  <path d="M 190 360 L 120 570 L 250 630 Z" fill="#77aabb" stroke="black" stroke-width="2"/>
  <path d="M 190 360 L 250 630 L 380 510 Z" fill="#99ccdd" stroke="black" stroke-width="2"/>
  <path d="M 120 570 L 380 510" fill="none" stroke="gray" stroke-width="2" stroke-dasharray="10,10"/>
  <circle cx="190" cy="360" r="10" fill="black" stroke="none"/>
  <circle cx="120" cy="570" r="10" fill="black" stroke="none"/>
  <circle cx="250" cy="630" r="10" fill="black" stroke="none"/>
  <circle cx="380" cy="510" r="10" fill="black" stroke="none"/>
  <!-- chain and triangle -->
  <path d="M 180 210 L 270 270" fill="none" stroke="gray" stroke-width="2" stroke-dasharray="10,10"/>
  <path d="M 90 150 L 180 210 M 270 270 L 330 310 L 340 450" fill="none" stroke="black" stroke-width="2"/>
  <path d="M 240 430 L 190 420" fill="none" stroke="gray" stroke-width="2" stroke-dasharray="10,10"/>
  <path d="M 340 450 L 240 430 L 210 450 L 190 420 L 90 400 L 60 520 Z" fill="#aaddee" stroke="black" stroke-width="2"/>
  <circle cx="90" cy="150" r="10" fill="black" stroke="none"/>
  <circle cx="330" cy="310" r="10" fill="black" stroke="none"/>
  <circle cx="340" cy="450" r="10" fill="black" stroke="none"/>
  <circle cx="90" cy="400" r="10" fill="black" stroke="none"/>
  <circle cx="60" cy="520" r="10" fill="black" stroke="none"/>
</svg>
